<svg width="180" height="54" viewBox="0 0 180 54" fill="none" xmlns="http://www.w3.org/2000/svg">
<path d="M173.333 1.07594C176.4 1.07594 178.933 3.60928 178.933 6.67594V46.6759C178.933 49.7426 176.4 52.276 173.333 52.276H6.66667C3.6 52.276 1.06667 49.7426 1.06667 46.6759V6.67594C1.06667 3.60928 3.6 1.07594 6.66667 1.07594H173.333ZM173.333 0.00927734H6.66667C2.93333 0.00927734 0 3.07594 0 6.67594V46.6759C0 50.4093 2.93333 53.3426 6.66667 53.3426H173.333C177.067 53.3426 180 50.4093 180 46.6759V6.67594C180 3.07594 177.067 0.00927734 173.333 0.00927734Z" fill="white"/>
</svg>
