<svg width="178" height="52" viewBox="0 0 178 52" fill="none" xmlns="http://www.w3.org/2000/svg">
<path d="M11.5733 51.1708C11.1142 51.1708 10.6662 51.1656 10.2107 51.1566C9.2671 51.1457 8.32572 51.073 7.39426 50.939C6.52572 50.8066 5.68434 50.5604 4.89787 50.2084C4.11861 49.8592 3.40786 49.4015 2.79286 48.8526C2.16895 48.3102 1.64951 47.6811 1.25514 46.9902C0.856424 46.2949 0.580488 45.5495 0.436945 44.7802C0.281931 43.9535 0.198062 43.1176 0.186061 42.2796C0.176508 41.9984 0.164001 41.0619 0.164001 41.0619V10.2547C0.164001 10.2547 0.177322 9.33265 0.186137 9.06175C0.197627 8.22515 0.281009 7.39054 0.435559 6.56514C0.579367 5.79367 0.855517 5.04618 1.25445 4.34854C1.64737 3.65815 2.16392 3.02857 2.78407 2.48422C3.40352 1.93469 4.11654 1.47457 4.89713 1.12064C5.68179 0.769742 6.52158 0.525209 7.38837 0.395232C8.32289 0.259959 9.26754 0.186823 10.2144 0.17644L11.574 0.160156H166.427L167.802 0.177093C168.741 0.186961 169.677 0.259444 170.603 0.393925C171.478 0.525533 172.327 0.771772 173.12 1.12454C174.684 1.83782 175.957 2.96629 176.759 4.35179C177.152 5.04461 177.424 5.78601 177.566 6.55081C177.722 7.38299 177.81 8.22416 177.828 9.06762C177.832 9.4453 177.832 9.85098 177.832 10.2547C177.844 10.7548 177.844 11.2308 177.844 11.7107V39.6215C177.844 40.106 177.844 40.5787 177.832 41.0554C177.832 41.4891 177.832 41.8863 177.826 42.2952C177.809 43.1236 177.723 43.9498 177.569 44.7671C177.428 45.542 177.154 46.2932 176.755 46.9942C176.358 47.6776 175.841 48.3012 175.225 48.8422C174.609 49.394 173.897 49.8545 173.116 50.2058C172.325 50.5606 171.477 50.8077 170.603 50.939C169.671 51.0737 168.73 51.1464 167.786 51.1566C167.345 51.1656 166.883 51.1708 166.434 51.1708L164.801 51.1735L11.5733 51.1708Z" fill="white"/>
</svg>
